<svg width="97" height="74" viewBox="0 0 97 74" fill="none" xmlns="http://www.w3.org/2000/svg">
<path d="M46.576 31.22C45.616 31.22 44.7094 31.34 43.856 31.58C43.0027 31.82 42.056 32.2067 41.016 32.74L39.336 28.22C40.376 27.5533 41.6027 27.0467 43.016 26.7C44.4294 26.3267 45.816 26.14 47.176 26.14C48.8827 26.14 50.2827 26.3667 51.376 26.82C52.496 27.2733 53.376 27.8467 54.016 28.54C54.656 29.2333 55.096 29.9933 55.336 30.82C55.6027 31.6467 55.736 32.4333 55.736 33.18C55.736 33.9267 55.616 34.62 55.376 35.26C55.1627 35.8733 54.8827 36.4467 54.536 36.98C54.1894 37.5133 53.7894 38.02 53.336 38.5C52.8827 38.98 52.4427 39.4333 52.016 39.86C51.696 40.18 51.3627 40.5267 51.016 40.9C50.6694 41.2467 50.3494 41.62 50.056 42.02C49.7894 42.42 49.5627 42.8467 49.376 43.3C49.1894 43.7267 49.096 44.1667 49.096 44.62C49.096 44.7267 49.096 44.8867 49.096 45.1C49.096 45.3133 49.1094 45.5 49.136 45.66H43.856C43.8027 45.3933 43.7627 45.1 43.736 44.78C43.736 44.4333 43.736 44.14 43.736 43.9C43.736 43.1533 43.8294 42.4867 44.016 41.9C44.2027 41.2867 44.4427 40.7267 44.736 40.22C45.056 39.6867 45.416 39.1933 45.816 38.74C46.216 38.2867 46.6294 37.8467 47.056 37.42C47.6694 36.8067 48.2294 36.2067 48.736 35.62C49.2427 35.0067 49.496 34.3133 49.496 33.54C49.496 32.9 49.2427 32.3533 48.736 31.9C48.256 31.4467 47.536 31.22 46.576 31.22ZM50.296 51.34C50.296 52.5133 49.9094 53.42 49.136 54.06C48.3894 54.7 47.536 55.02 46.576 55.02C45.616 55.02 44.7494 54.7 43.976 54.06C43.2294 53.42 42.856 52.5133 42.856 51.34C42.856 50.1667 43.2294 49.26 43.976 48.62C44.7494 47.98 45.616 47.66 46.576 47.66C47.536 47.66 48.3894 47.98 49.136 48.62C49.9094 49.26 50.296 50.1667 50.296 51.34Z" fill="white"/>
<g clip-path="url(#clip0_175_303)">
<path d="M4.23918 16.022C3.28643 15.01 2.7749 13.875 2.7749 12.0352C2.7749 8.7977 5.04763 5.89598 8.35265 4.4613L9.17868 5.73595C6.0938 7.40465 5.4907 9.57008 5.2502 10.9354C5.74693 10.6782 6.3972 10.5885 7.03453 10.6477C8.70323 10.8022 10.0186 12.1721 10.0186 13.875C10.0186 14.7337 9.67749 15.5571 9.07034 16.1643C8.46319 16.7714 7.63972 17.1125 6.78108 17.1125C5.78855 17.1125 4.8395 16.6593 4.23918 16.022V16.022ZM13.4892 16.022C12.5364 15.01 12.0249 13.875 12.0249 12.0352C12.0249 8.7977 14.2976 5.89598 17.6027 4.4613L18.4287 5.73595C15.3438 7.40465 14.7407 9.57008 14.5002 10.9354C14.9969 10.6782 15.6472 10.5885 16.2845 10.6477C17.9532 10.8022 19.2686 12.1721 19.2686 13.875C19.2686 14.7337 18.9275 15.5571 18.3203 16.1643C17.7132 16.7714 16.8897 17.1125 16.0311 17.1125C15.0386 17.1125 14.0895 16.6593 13.4892 16.022V16.022Z" fill="white"/>
</g>
<g clip-path="url(#clip1_175_303)">
<path d="M48.1002 12.3334C41.5582 12.3334 35.2841 14.9322 30.6582 19.5581C26.0323 24.184 23.4335 30.458 23.4335 37H32.6835C34.319 37 35.8875 37.6497 37.044 38.8062C38.2005 39.9627 38.8502 41.5312 38.8502 43.1667V58.5834C38.8502 60.2189 38.2005 61.7874 37.044 62.9438C35.8875 64.1003 34.319 64.75 32.6835 64.75H23.4335C21.798 64.75 20.2295 64.1003 19.073 62.9438C17.9165 61.7874 17.2668 60.2189 17.2668 58.5834V37C17.2668 19.9708 31.0709 6.16669 48.1002 6.16669C65.1294 6.16669 78.9335 19.9708 78.9335 37V58.5834C78.9335 60.2189 78.2838 61.7874 77.1273 62.9438C75.9709 64.1003 74.4024 64.75 72.7668 64.75H63.5168C61.8813 64.75 60.3128 64.1003 59.1564 62.9438C57.9999 61.7874 57.3502 60.2189 57.3502 58.5834V43.1667C57.3502 41.5312 57.9999 39.9627 59.1564 38.8062C60.3128 37.6497 61.8813 37 63.5168 37H72.7668C72.7668 30.458 70.168 24.184 65.5421 19.5581C60.9163 14.9322 54.6422 12.3334 48.1002 12.3334V12.3334ZM23.4335 43.1667V58.5834H32.6835V43.1667H23.4335ZM63.5168 43.1667V58.5834H72.7668V43.1667H63.5168Z" fill="white"/>
</g>
<g clip-path="url(#clip2_175_303)">
<path d="M91.9606 6.1781C92.9134 7.19005 93.4249 8.32502 93.4249 10.1648C93.4249 13.4023 91.1522 16.3041 87.8471 17.7387L87.0211 16.4641C90.106 14.7954 90.7091 12.63 90.9496 11.2647C90.4529 11.5218 89.8026 11.6115 89.1653 11.5523C87.4966 11.3979 86.1812 10.0279 86.1812 8.32502C86.1812 7.46639 86.5223 6.64292 87.1294 6.03577C87.7366 5.42862 88.5601 5.08752 89.4187 5.08752C90.4112 5.08752 91.3603 5.54077 91.9606 6.1781ZM82.7106 6.1781C83.6634 7.19005 84.1749 8.32502 84.1749 10.1648C84.1749 13.4023 81.9022 16.3041 78.5971 17.7387L77.7711 16.4641C80.856 14.7954 81.4591 12.63 81.6996 11.2647C81.2029 11.5218 80.5526 11.6115 79.9153 11.5523C78.2466 11.3979 76.9321 10.0279 76.9321 8.32502C76.9321 7.46639 77.2732 6.64292 77.8804 6.03577C78.4875 5.42862 79.311 5.08752 80.1696 5.08752C81.1622 5.08752 82.1112 5.54077 82.7115 6.1781H82.7106Z" fill="white"/>
</g>
<defs>
<clipPath id="clip0_175_303">
<rect width="22.2" height="22.2" fill="white"/>
</clipPath>
<clipPath id="clip1_175_303">
<rect width="74" height="74" fill="white" transform="translate(11.1001)"/>
</clipPath>
<clipPath id="clip2_175_303">
<rect width="22.2" height="22.2" fill="white" transform="translate(74)"/>
</clipPath>
</defs>
</svg>
