<svg width="53" height="63" viewBox="0 0 53 63" fill="none" xmlns="http://www.w3.org/2000/svg">
<path d="M22.5001 37.0834V42.6667C18.0577 42.6667 13.7973 44.4314 10.656 47.5726C7.51481 50.7139 5.75008 54.9743 5.75008 59.4167H0.166748C0.166748 53.4935 2.51972 47.8129 6.70803 43.6246C10.8963 39.4363 16.5769 37.0834 22.5001 37.0834V37.0834ZM22.5001 34.2917C13.2457 34.2917 5.75008 26.7961 5.75008 17.5417C5.75008 8.28731 13.2457 0.791687 22.5001 0.791687C31.7545 0.791687 39.2501 8.28731 39.2501 17.5417C39.2501 26.7961 31.7545 34.2917 22.5001 34.2917ZM22.5001 28.7084C28.6697 28.7084 33.6667 23.7113 33.6667 17.5417C33.6667 11.3721 28.6697 6.37502 22.5001 6.37502C16.3305 6.37502 11.3334 11.3721 11.3334 17.5417C11.3334 23.7113 16.3305 28.7084 22.5001 28.7084ZM39.2501 58.0209L31.0454 62.334L32.6115 53.1996L25.9757 46.7286L35.1491 45.3941L39.2501 37.0834L43.3538 45.3941L52.5245 46.7286L45.8887 53.1996L47.452 62.334L39.2501 58.0209Z" fill="white"/>
</svg>
