<svg width="126" height="86" viewBox="0 0 126 86" fill="none" xmlns="http://www.w3.org/2000/svg">
<rect x="1.85535" y="17.6554" width="50.6564" height="53" rx="8.5" transform="rotate(-16 1.85535 17.6554)" stroke="white" stroke-width="3"/>
<path d="M21.0224 36.9785C21.1621 37.4655 21.2001 37.9609 21.1365 38.4646C21.0729 38.9683 20.9479 39.4758 20.7616 39.9869C20.5716 40.4853 20.3394 40.9818 20.0652 41.4766C19.7909 41.9713 19.5176 42.445 19.2451 42.8977C19.1043 43.1322 18.9517 43.3979 18.7871 43.6948C18.6317 43.9752 18.4845 44.2601 18.3456 44.5496C18.2067 44.8391 18.0833 45.1103 17.9755 45.3631C17.8768 45.5995 17.8267 45.7872 17.825 45.9264L23.5541 44.2836L24.2432 46.6868L15.3611 49.2337C15.2951 49.1001 15.2308 48.9243 15.1683 48.7064C15.1058 48.4885 15.0617 48.3347 15.036 48.245C14.8596 47.6298 14.794 47.0383 14.8393 46.4705C14.8973 45.899 15.0241 45.3494 15.2195 44.8218C15.4113 44.2813 15.6508 43.7619 15.9378 43.2634C16.2377 42.7613 16.5312 42.2611 16.8183 41.7626C17.0413 41.3796 17.2507 41.0214 17.4463 40.6879C17.6383 40.3415 17.8019 40.0172 17.9372 39.7149C18.0687 39.3997 18.1573 39.1039 18.2028 38.8273C18.2446 38.5379 18.2288 38.265 18.1553 38.0087C17.9936 37.4447 17.7195 37.0933 17.3329 36.9545C16.9463 36.8157 16.5159 36.8143 16.0417 36.9502C15.6956 37.0495 15.3854 37.2009 15.1108 37.4044C14.8454 37.5915 14.6066 37.7987 14.3944 38.026C14.1913 38.2368 14.0221 38.4448 13.8868 38.6501C13.7478 38.8425 13.6463 38.9965 13.5823 39.1119L11.5863 37.5204C11.9995 36.8332 12.5301 36.2164 13.1779 35.67C13.8349 35.1071 14.5927 34.7026 15.4514 34.4563C16.2332 34.2322 16.9319 34.1289 17.5473 34.1467C18.1626 34.1644 18.6976 34.2884 19.152 34.5187C19.6155 34.7326 19.9986 35.0527 20.3012 35.4792C20.613 35.8891 20.8534 36.3889 21.0224 36.9785ZM33.5784 36.7695C34.2216 39.0124 34.2865 40.8594 33.7732 42.3104C33.2691 43.7449 32.2673 44.6772 30.7677 45.1072C29.2681 45.5372 27.9181 45.2793 26.7176 44.3336C25.5262 43.3714 24.6089 41.7688 23.9658 39.5258C23.646 38.4108 23.472 37.3927 23.4437 36.4714C23.4281 35.5466 23.5473 34.7287 23.8012 34.0178C24.0551 33.307 24.4327 32.7132 24.9341 32.2366C25.4355 31.7599 26.0514 31.4168 26.782 31.2074C28.2816 30.7774 29.627 31.0435 30.8184 32.0057C32.0189 32.9514 32.9389 34.5393 33.5784 36.7695ZM30.6562 37.6074C30.4651 36.9409 30.2603 36.3477 30.0418 35.8278C29.8197 35.2951 29.5812 34.8502 29.3263 34.4933C29.0714 34.1364 28.7909 33.884 28.4849 33.7359C28.1789 33.5879 27.8465 33.5653 27.4876 33.6682C27.1288 33.7711 26.8588 33.9664 26.6778 34.2541C26.5095 34.5381 26.4055 34.9009 26.3656 35.3423C26.3386 35.7801 26.372 36.2837 26.466 36.8532C26.5562 37.4099 26.6969 38.0214 26.888 38.6879C27.0791 39.3544 27.2857 39.954 27.5079 40.4867C27.73 41.0195 27.9685 41.4643 28.2234 41.8212C28.4911 42.1744 28.7716 42.4269 29.0648 42.5786C29.3708 42.7267 29.7032 42.7493 30.0621 42.6464C30.421 42.5435 30.6909 42.3482 30.8719 42.0604C31.053 41.7727 31.157 41.41 31.1841 40.9722C31.2111 40.5345 31.1777 40.0309 31.0838 39.4614C30.9898 38.8919 30.8473 38.2739 30.6562 37.6074ZM42.8761 30.712C43.0158 31.1991 43.0538 31.6944 42.9902 32.1982C42.9265 32.7019 42.8016 33.2093 42.6152 33.7205C42.4252 34.2188 42.1931 34.7154 41.9189 35.2101C41.6446 35.7049 41.3713 36.1786 41.0988 36.6312C40.958 36.8658 40.8053 37.1315 40.6408 37.4283C40.4854 37.7087 40.3382 37.9936 40.1993 38.2831C40.0604 38.5727 39.937 38.8438 39.8292 39.0967C39.7305 39.333 39.6803 39.5208 39.6786 39.66L45.4078 38.0172L46.0969 40.4204L37.2148 42.9672C37.1487 42.8336 37.0845 42.6578 37.022 42.44C36.9595 42.2221 36.9154 42.0683 36.8897 41.9786C36.7133 41.3633 36.6477 40.7718 36.6929 40.204C36.751 39.6326 36.8778 39.083 37.0732 38.5554C37.265 38.0149 37.5044 37.4954 37.7915 36.997C38.0914 36.4949 38.3849 35.9946 38.6719 35.4962C38.895 35.1132 39.1044 34.7549 39.3 34.4214C39.492 34.0751 39.6556 33.7508 39.7909 33.4484C39.9224 33.1333 40.011 32.8374 40.0565 32.5608C40.0983 32.2714 40.0825 31.9986 40.009 31.7422C39.8473 31.1783 39.5732 30.8269 39.1866 30.6881C38.8 30.5492 38.3696 30.5478 37.8954 30.6838C37.5493 30.783 37.239 30.9344 36.9645 31.138C36.6991 31.325 36.4603 31.5322 36.2481 31.7595C36.045 31.9703 35.8758 32.1784 35.7404 32.3836C35.6014 32.5761 35.4999 32.73 35.4359 32.8455L33.44 31.254C33.8532 30.5668 34.3837 29.95 35.0316 29.4036C35.6885 28.8407 36.4464 28.4361 37.3051 28.1899C38.0869 27.9657 38.7855 27.8625 39.4009 27.8802C40.0163 27.8979 40.5512 28.022 41.0057 28.2523C41.4692 28.4661 41.8523 28.7863 42.1549 29.2127C42.4667 29.6227 42.7071 30.1225 42.8761 30.712ZM45.4035 29.1967C45.7311 28.9363 46.066 28.653 46.4082 28.3468C46.7595 28.0242 47.0944 27.6923 47.4127 27.3514C47.7274 26.9976 48.021 26.6429 48.2936 26.2874C48.5753 25.9153 48.8148 25.5415 49.0123 25.1658L51.0117 24.5925L54.832 37.9156L51.9675 38.737L49.2166 29.1436C48.9056 29.5102 48.5442 29.8704 48.1325 30.2243C47.7171 30.5653 47.3071 30.8771 46.9026 31.1595L45.4035 29.1967Z" fill="white"/>
<rect x="46.6503" y="1.83712" width="50.6564" height="53" rx="8.5" transform="rotate(15 46.6503 1.83712)" fill="#7BA5E8" stroke="white" stroke-width="3"/>
<path d="M44.3835 25.1778C44.7984 25.1233 45.2313 25.053 45.6824 24.9668C46.1497 24.8712 46.6076 24.7592 47.0561 24.6309C47.508 24.4897 47.9424 24.3369 48.3591 24.1725C48.7922 23.9987 49.1901 23.8016 49.5528 23.5813L51.5619 24.1197L47.9747 37.5074L45.0963 36.7361L47.6793 27.0962C47.2239 27.2503 46.7286 27.3729 46.1934 27.4642C45.6617 27.5425 45.1497 27.5986 44.6575 27.6324L44.3835 25.1778ZM58.6779 32.6729C58.9741 32.7522 59.2901 32.8093 59.6259 32.8441C59.9651 32.8659 60.2258 32.8461 60.408 32.7844L60.4545 32.6106C60.4683 32.5591 60.4821 32.5075 60.4959 32.456C60.5226 32.408 60.5412 32.3646 60.5515 32.326C60.6629 31.8589 60.7398 31.4171 60.7824 31.0006C60.8284 30.5712 60.8139 30.1877 60.7387 29.8501C60.667 29.4996 60.5183 29.2044 60.2927 28.9645C60.0834 28.7151 59.7856 28.5387 59.3993 28.4352C59.0902 28.3524 58.8024 28.3443 58.5361 28.411C58.2698 28.4776 58.0382 28.595 57.8413 28.7631C57.6444 28.9312 57.4745 29.1273 57.3317 29.3513C57.2017 29.5787 57.1057 29.8084 57.0436 30.0402C56.8572 30.7356 56.8866 31.2957 57.1318 31.7202C57.3898 32.1483 57.9051 32.4658 58.6779 32.6729ZM59.586 34.9246C59.2811 34.981 58.9525 34.9965 58.6004 34.9711C58.2646 34.9364 57.9808 34.8879 57.749 34.8258C56.9119 34.6015 56.223 34.3134 55.6823 33.9615C55.1451 33.5967 54.7316 33.1822 54.4418 32.718C54.1684 32.2445 54.0106 31.726 53.9683 31.1625C53.9261 30.599 53.9877 30.0082 54.1534 29.39C54.2914 28.8748 54.5166 28.3692 54.829 27.8732C55.1542 27.3806 55.5623 26.9653 56.0531 26.6275C56.5474 26.2768 57.1158 26.0358 57.7584 25.9043C58.4173 25.7633 59.1525 25.8016 59.9639 26.019C61.6252 26.4641 62.7365 27.314 63.2975 28.5687C63.8749 29.8139 63.9065 31.396 63.3923 33.3149C63.0542 34.5771 62.5882 35.6463 61.9945 36.5225C61.4138 37.4021 60.6876 38.0772 59.8162 38.5477C58.9576 39.0216 57.9472 39.2892 56.7851 39.3505C55.6264 39.3989 54.3112 39.2329 52.8396 38.8524C52.9371 38.4368 53.0248 38.0324 53.1026 37.6391C53.1803 37.2458 53.2615 36.8397 53.3462 36.4206C54.0838 36.6045 54.7608 36.7307 55.3774 36.7993C55.9975 36.855 56.5622 36.8337 57.0716 36.7356C57.5845 36.6245 58.0456 36.4237 58.4547 36.133C58.8768 35.8458 59.2539 35.443 59.586 34.9246ZM69.6577 35.6149C69.954 35.6943 70.27 35.7513 70.6057 35.7861C70.945 35.808 71.2057 35.7881 71.3878 35.7265L71.4344 35.5526C71.4482 35.5011 71.462 35.4496 71.4758 35.3981C71.5025 35.35 71.521 35.3067 71.5314 35.268C71.6427 34.8009 71.7197 34.3591 71.7623 33.9426C71.8083 33.5132 71.7937 33.1297 71.7186 32.7921C71.6468 32.4416 71.4982 32.1464 71.2726 31.9065C71.0633 31.6572 70.7655 31.4808 70.3791 31.3772C70.07 31.2944 69.7823 31.2863 69.516 31.353C69.2496 31.4197 69.018 31.5371 68.8211 31.7052C68.6243 31.8733 68.4544 32.0693 68.3116 32.2933C68.1816 32.5208 68.0856 32.7504 68.0234 32.9822C67.8371 33.6777 67.8665 34.2377 68.1116 34.6623C68.3696 35.0903 68.885 35.4079 69.6577 35.6149ZM70.5659 37.8667C70.2609 37.923 69.9324 37.9385 69.5803 37.9132C69.2445 37.8784 68.9607 37.83 68.7289 37.7679C67.8917 37.5436 67.2028 37.2554 66.6622 36.9035C66.1249 36.5387 65.7115 36.1242 65.4217 35.6601C65.1483 35.1865 64.9905 34.668 64.9482 34.1045C64.9059 33.5411 64.9676 32.9502 65.1332 32.332C65.2713 31.8169 65.4965 31.3113 65.8088 30.8152C66.1341 30.3226 66.5421 29.9074 67.0329 29.5696C67.5272 29.2189 68.0957 28.9778 68.7383 28.8463C69.3972 28.7054 70.1323 28.7436 70.9437 28.961C72.6051 29.4062 73.7163 30.2561 74.2774 31.5107C74.8548 32.7559 74.8864 34.338 74.3722 36.257C74.034 37.5191 73.5681 38.5883 72.9744 39.4645C72.3936 40.3442 71.6675 41.0192 70.796 41.4897C69.9374 41.9636 68.9271 42.2313 67.7649 42.2926C66.6063 42.341 65.2911 42.1749 63.8194 41.7944C63.917 41.3788 64.0046 40.9744 64.0824 40.5811C64.1602 40.1879 64.2414 39.7817 64.3261 39.3627C65.0636 39.5465 65.7407 39.6727 66.3573 39.7413C66.9773 39.797 67.5421 39.7758 68.0515 39.6776C68.5644 39.5666 69.0254 39.3657 69.4346 39.0751C69.8566 38.7878 70.2337 38.385 70.5659 37.8667ZM85.2464 40.2888C84.6425 42.5426 83.7469 44.1593 82.5596 45.1387C81.3887 46.1087 80.0498 46.3918 78.5429 45.988C77.0361 45.5843 76.0117 44.6679 75.4697 43.2389C74.9441 41.8006 74.9832 39.9545 75.5871 37.7006C75.8874 36.5802 76.2626 35.6178 76.7127 34.8136C77.1758 34.0128 77.6991 33.3731 78.2829 32.8946C78.8666 32.416 79.4961 32.1016 80.1714 31.9512C80.8467 31.8009 81.5513 31.824 82.2854 32.0207C83.7923 32.4245 84.8085 33.3456 85.3342 34.784C85.8761 36.2129 85.8469 38.0479 85.2464 40.2888ZM82.31 39.502C82.4894 38.8323 82.6194 38.2184 82.7 37.6602C82.784 37.0891 82.8086 36.585 82.7739 36.1478C82.7392 35.7106 82.6289 35.3497 82.4428 35.0652C82.2568 34.7807 81.9835 34.5901 81.6229 34.4935C81.2623 34.3969 80.9303 34.4253 80.6269 34.5786C80.3364 34.7355 80.0604 34.9928 79.7989 35.3506C79.5502 35.7119 79.3195 36.1608 79.1067 36.6974C78.8974 37.221 78.703 37.8177 78.5236 38.4874C78.3441 39.1571 78.2124 39.7775 78.1284 40.3486C78.0444 40.9196 78.0197 41.4238 78.0544 41.861C78.102 42.3016 78.2124 42.6625 78.3855 42.9435C78.5716 43.2281 78.8449 43.4186 79.2055 43.5153C79.5661 43.6119 79.8981 43.5835 80.2015 43.4301C80.5048 43.2768 80.7808 43.0194 81.0295 42.6581C81.2781 42.2968 81.5089 41.8479 81.7216 41.3114C81.9344 40.7748 82.1305 40.1717 82.31 39.502Z" fill="white"/>
<rect x="87.6936" y="10.1213" width="50.6564" height="53" rx="8.5" transform="rotate(45 87.6936 10.1213)" fill="#6AABE9" stroke="white" stroke-width="3"/>
<path d="M89.9993 41.46C89.575 41.0357 89.1213 40.6881 88.6381 40.417C88.1549 40.1459 87.5657 39.8985 86.8703 39.6745L88.1255 36.9345C88.8797 37.0995 89.6457 37.4177 90.4236 37.8891C91.2132 38.3487 91.9085 38.879 92.5095 39.4801C93.2638 40.2343 93.7823 40.9532 94.0652 41.6368C94.3598 42.3321 94.4953 42.9744 94.4717 43.5636C94.4482 44.1529 94.3068 44.6832 94.0475 45.1546C93.8 45.6378 93.5113 46.0444 93.1813 46.3744C92.8513 46.7044 92.4918 46.9577 92.1029 47.1345C91.7376 47.3113 91.3605 47.4409 90.9716 47.5234C90.5827 47.6059 90.182 47.6531 89.7695 47.6648C89.357 47.6766 88.9622 47.6825 88.5851 47.6825C88.3022 47.6825 88.0017 47.6884 87.6835 47.7002C87.3771 47.7002 87.0707 47.7238 86.7643 47.7709C86.4697 47.8298 86.1809 47.9182 85.8981 48.0361C85.627 48.1421 85.3913 48.2954 85.191 48.4957C85.1438 48.5428 85.0731 48.6135 84.9788 48.7078C84.8846 48.8021 84.8079 48.8905 84.749 48.973L82.4156 46.6395C82.5099 46.4981 82.6218 46.3508 82.7514 46.1976C82.9047 46.0444 83.0343 45.9148 83.1404 45.8087C83.4703 45.4787 83.8062 45.2253 84.148 45.0486C84.5015 44.86 84.8551 44.7186 85.2086 44.6243C85.5858 44.53 85.9629 44.4711 86.34 44.4475C86.7171 44.4239 87.0943 44.4122 87.4714 44.4122C88.0135 44.4122 88.5262 44.3945 89.0093 44.3591C89.5043 44.312 89.9227 44.1175 90.2645 43.7758C90.5473 43.4929 90.6769 43.1394 90.6534 42.7151C90.6416 42.3026 90.4236 41.8842 89.9993 41.46ZM82.7514 51.9959C82.2329 52.5144 81.6613 52.7442 81.0367 52.6853C80.4239 52.6382 79.9053 52.4025 79.4811 51.9782C79.0568 51.5539 78.8152 51.0295 78.7563 50.4049C78.7092 49.7921 78.9449 49.2264 79.4634 48.7078C79.9819 48.1893 80.5476 47.9536 81.1605 48.0007C81.7851 48.0596 82.3095 48.3012 82.7338 48.7255C83.158 49.1498 83.3937 49.6683 83.4409 50.2811C83.4998 50.9058 83.27 51.4773 82.7514 51.9959Z" fill="white"/>
</svg>
