<svg width="176" height="176" viewBox="0 0 176 176" fill="none" xmlns="http://www.w3.org/2000/svg">
<path d="M87.9998 161.333C47.4978 161.333 14.6665 128.502 14.6665 88C14.6665 47.498 47.4978 14.6666 87.9998 14.6666C128.502 14.6666 161.333 47.498 161.333 88C161.333 128.502 128.502 161.333 87.9998 161.333ZM87.9998 146.667C103.559 146.667 118.481 140.486 129.483 129.484C140.486 118.481 146.667 103.559 146.667 88C146.667 72.4406 140.486 57.5185 129.483 46.5164C118.481 35.5142 103.559 29.3333 87.9998 29.3333C72.4405 29.3333 57.5184 35.5142 46.5162 46.5164C35.5141 57.5185 29.3332 72.4406 29.3332 88C29.3332 103.559 35.5141 118.481 46.5162 129.484C57.5184 140.486 72.4405 146.667 87.9998 146.667ZM65.9998 66H80.6665V110H65.9998V66ZM95.3332 66H110V110H95.3332V66Z" fill="url(#paint0_linear_62_616)"/>
<defs>
<linearGradient id="paint0_linear_62_616" x1="87.9998" y1="14.6666" x2="87.9998" y2="161.333" gradientUnits="userSpaceOnUse">
<stop stop-color="#CD5050"/>
<stop offset="1" stop-color="#5325D5" stop-opacity="0.3"/>
</linearGradient>
</defs>
</svg>
