<svg width="176" height="176" viewBox="0 0 176 176" fill="none" xmlns="http://www.w3.org/2000/svg">
<path d="M88 161.333C47.498 161.333 14.6666 128.502 14.6666 88C14.6666 47.498 47.498 14.6666 88 14.6666C128.502 14.6666 161.333 47.498 161.333 88C161.333 128.502 128.502 161.333 88 161.333ZM88 146.667C103.559 146.667 118.481 140.486 129.484 129.484C140.486 118.481 146.667 103.559 146.667 88C146.667 72.4406 140.486 57.5185 129.484 46.5164C118.481 35.5142 103.559 29.3333 88 29.3333C72.4406 29.3333 57.5185 35.5142 46.5164 46.5164C35.5142 57.5185 29.3333 72.4406 29.3333 88C29.3333 103.559 35.5142 118.481 46.5164 129.484C57.5185 140.486 72.4406 146.667 88 146.667V146.667ZM66 66H80.6666V110H66V66ZM95.3333 66H110V110H95.3333V66Z" fill="url(#paint0_linear_114_721)"/>
<defs>
<linearGradient id="paint0_linear_114_721" x1="88" y1="14.6666" x2="88" y2="161.333" gradientUnits="userSpaceOnUse">
<stop stop-color="#5325D5"/>
<stop offset="1" stop-color="#38CFF0" stop-opacity="0.3"/>
</linearGradient>
</defs>
</svg>
