<svg width="176" height="176" viewBox="0 0 176 176" fill="none" xmlns="http://www.w3.org/2000/svg">
<g clip-path="url(#clip0_114_716)">
<path d="M88 161.333C47.498 161.333 14.6667 128.502 14.6667 88C14.6667 47.498 47.498 14.6666 88 14.6666C128.502 14.6666 161.333 47.498 161.333 88C161.333 128.502 128.502 161.333 88 161.333ZM88 146.667C103.559 146.667 118.481 140.486 129.484 129.484C140.486 118.481 146.667 103.559 146.667 88C146.667 72.4406 140.486 57.5185 129.484 46.5164C118.481 35.5142 103.559 29.3333 88 29.3333C72.4407 29.3333 57.5186 35.5142 46.5164 46.5164C35.5143 57.5185 29.3334 72.4406 29.3334 88C29.3334 103.559 35.5143 118.481 46.5164 129.484C57.5186 140.486 72.4407 146.667 88 146.667V146.667ZM77.8947 61.71L113.674 85.558C114.076 85.8257 114.406 86.1888 114.635 86.6148C114.863 87.0408 114.982 87.5166 114.982 88C114.982 88.4833 114.863 88.9591 114.635 89.3851C114.406 89.8112 114.076 90.1742 113.674 90.442L77.8874 114.29C77.4461 114.582 76.9339 114.75 76.4051 114.775C75.8763 114.8 75.3506 114.681 74.8837 114.432C74.4168 114.182 74.0262 113.811 73.7533 113.357C73.4803 112.904 73.3352 112.385 73.3334 111.855V64.1446C73.3343 63.6141 73.4792 63.0937 73.7525 62.639C74.0258 62.1842 74.4174 61.8121 74.8854 61.5623C75.3535 61.3124 75.8805 61.1942 76.4105 61.2202C76.9404 61.2463 77.4533 61.4155 77.8947 61.71V61.71Z" fill="url(#paint0_linear_114_716)"/>
</g>
<defs>
<linearGradient id="paint0_linear_114_716" x1="88" y1="14.6666" x2="88" y2="161.333" gradientUnits="userSpaceOnUse">
<stop stop-color="#5325D5"/>
<stop offset="1" stop-color="#38CFF0" stop-opacity="0.3"/>
</linearGradient>
<clipPath id="clip0_114_716">
<rect width="176" height="176" fill="white"/>
</clipPath>
</defs>
</svg>
