<svg width="176" height="176" viewBox="0 0 176 176" fill="none" xmlns="http://www.w3.org/2000/svg">
<g clip-path="url(#clip0_110_708)">
<path d="M88 161.333C47.498 161.333 14.6667 128.502 14.6667 88.0001C14.6667 47.4981 47.498 14.6667 88 14.6667C128.502 14.6667 161.333 47.4981 161.333 88.0001C161.333 128.502 128.502 161.333 88 161.333ZM88 146.667C103.559 146.667 118.481 140.486 129.484 129.484C140.486 118.482 146.667 103.559 146.667 88.0001C146.667 72.4407 140.486 57.5186 129.484 46.5165C118.481 35.5144 103.559 29.3334 88 29.3334C72.4407 29.3334 57.5186 35.5144 46.5164 46.5165C35.5143 57.5186 29.3334 72.4407 29.3334 88.0001C29.3334 103.559 35.5143 118.482 46.5164 129.484C57.5186 140.486 72.4407 146.667 88 146.667V146.667ZM77.8947 61.7101L113.674 85.5581C114.076 85.8258 114.406 86.1889 114.635 86.6149C114.863 87.0409 114.982 87.5168 114.982 88.0001C114.982 88.4834 114.863 88.9592 114.635 89.3853C114.406 89.8113 114.076 90.1743 113.674 90.4421L77.8874 114.29C77.4461 114.583 76.9339 114.75 76.4051 114.775C75.8763 114.8 75.3506 114.682 74.8837 114.432C74.4168 114.182 74.0262 113.811 73.7533 113.357C73.4803 112.904 73.3352 112.385 73.3334 111.855V64.1447C73.3343 63.6142 73.4792 63.0938 73.7525 62.6391C74.0258 62.1843 74.4174 61.8122 74.8854 61.5624C75.3535 61.3126 75.8805 61.1944 76.4105 61.2204C76.9404 61.2464 77.4533 61.4156 77.8947 61.7101V61.7101Z" fill="url(#paint0_linear_110_708)"/>
</g>
<defs>
<linearGradient id="paint0_linear_110_708" x1="88" y1="14.6667" x2="88" y2="161.333" gradientUnits="userSpaceOnUse">
<stop stop-color="#62F9D5"/>
<stop offset="1" stop-color="#5A4EE6" stop-opacity="0.3"/>
</linearGradient>
<clipPath id="clip0_110_708">
<rect width="176" height="176" fill="white"/>
</clipPath>
</defs>
</svg>
