<svg width="176" height="176" viewBox="0 0 176 176" fill="none" xmlns="http://www.w3.org/2000/svg">
<g clip-path="url(#clip0_62_1802)">
<path d="M87.9998 161.333C47.4978 161.333 14.6665 128.502 14.6665 87.9998C14.6665 47.4978 47.4978 14.6665 87.9998 14.6665C128.502 14.6665 161.333 47.4978 161.333 87.9998C161.333 128.502 128.502 161.333 87.9998 161.333ZM87.9998 146.667C103.559 146.667 118.481 140.486 129.483 129.483C140.486 118.481 146.667 103.559 146.667 87.9998C146.667 72.4405 140.486 57.5184 129.483 46.5162C118.481 35.5141 103.559 29.3332 87.9998 29.3332C72.4405 29.3332 57.5184 35.5141 46.5162 46.5162C35.5141 57.5184 29.3332 72.4405 29.3332 87.9998C29.3332 103.559 35.5141 118.481 46.5162 129.483C57.5184 140.486 72.4405 146.667 87.9998 146.667ZM77.8945 61.7098L113.674 85.5578C114.076 85.8256 114.406 86.1886 114.634 86.6147C114.863 87.0407 114.982 87.5165 114.982 87.9998C114.982 88.4831 114.863 88.959 114.634 89.385C114.406 89.811 114.076 90.1741 113.674 90.4418L77.8872 114.29C77.4459 114.582 76.9337 114.75 76.4049 114.775C75.8761 114.8 75.3504 114.681 74.8835 114.432C74.4166 114.182 74.026 113.811 73.7531 113.357C73.4801 112.904 73.335 112.385 73.3332 111.855V64.1445C73.3342 63.6139 73.479 63.0936 73.7523 62.6388C74.0257 62.1841 74.4172 61.812 74.8852 61.5622C75.3533 61.3123 75.8804 61.1941 76.4103 61.2201C76.9402 61.2461 77.4532 61.4154 77.8945 61.7098Z" fill="url(#paint0_linear_62_1802)"/>
</g>
<defs>
<linearGradient id="paint0_linear_62_1802" x1="87.9998" y1="14.6665" x2="87.9998" y2="161.333" gradientUnits="userSpaceOnUse">
<stop stop-color="#CD5050"/>
<stop offset="1" stop-color="#5325D5" stop-opacity="0.3"/>
</linearGradient>
<clipPath id="clip0_62_1802">
<rect width="176" height="176" fill="white"/>
</clipPath>
</defs>
</svg>
