<svg width="176" height="176" viewBox="0 0 176 176" fill="none" xmlns="http://www.w3.org/2000/svg">
<g clip-path="url(#clip0_62_793)">
<path d="M87.9998 161.333C47.4978 161.333 14.6665 128.502 14.6665 88C14.6665 47.498 47.4978 14.6666 87.9998 14.6666C128.502 14.6666 161.333 47.498 161.333 88C161.333 128.502 128.502 161.333 87.9998 161.333ZM87.9998 146.667C103.559 146.667 118.481 140.486 129.483 129.484C140.486 118.481 146.667 103.559 146.667 88C146.667 72.4406 140.486 57.5185 129.483 46.5164C118.481 35.5142 103.559 29.3333 87.9998 29.3333C72.4405 29.3333 57.5184 35.5142 46.5162 46.5164C35.5141 57.5185 29.3332 72.4406 29.3332 88C29.3332 103.559 35.5141 118.481 46.5162 129.484C57.5184 140.486 72.4405 146.667 87.9998 146.667ZM77.8945 61.71L113.674 85.558C114.076 85.8257 114.406 86.1888 114.634 86.6148C114.863 87.0408 114.982 87.5166 114.982 88C114.982 88.4833 114.863 88.9591 114.634 89.3851C114.406 89.8112 114.076 90.1742 113.674 90.442L77.8872 114.29C77.4459 114.582 76.9337 114.75 76.4049 114.775C75.8761 114.8 75.3504 114.681 74.8835 114.432C74.4166 114.182 74.026 113.811 73.7531 113.357C73.4801 112.904 73.335 112.385 73.3332 111.855V64.1446C73.3342 63.6141 73.479 63.0937 73.7523 62.639C74.0257 62.1842 74.4172 61.8121 74.8852 61.5623C75.3533 61.3124 75.8804 61.1942 76.4103 61.2202C76.9402 61.2463 77.4532 61.4155 77.8945 61.71Z" fill="url(#paint0_linear_62_793)"/>
</g>
<defs>
<linearGradient id="paint0_linear_62_793" x1="87.9998" y1="14.6666" x2="87.9998" y2="161.333" gradientUnits="userSpaceOnUse">
<stop stop-color="#494949"/>
<stop offset="1" stop-color="#494949" stop-opacity="0.3"/>
</linearGradient>
<clipPath id="clip0_62_793">
<rect width="176" height="176" fill="white"/>
</clipPath>
</defs>
</svg>
