<svg width="80" height="80" viewBox="0 0 80 80" fill="none" xmlns="http://www.w3.org/2000/svg">
<path d="M13.3334 40H23.3334C25.1015 40 26.7972 40.7023 28.0475 41.9526C29.2977 43.2028 30.0001 44.8985 30.0001 46.6666V63.3333C30.0001 65.1014 29.2977 66.7971 28.0475 68.0473C26.7972 69.2976 25.1015 70 23.3334 70H13.3334C11.5653 70 9.86961 69.2976 8.61937 68.0473C7.36913 66.7971 6.66675 65.1014 6.66675 63.3333V40C6.66675 21.59 21.5901 6.66663 40.0001 6.66663C58.4101 6.66663 73.3334 21.59 73.3334 40V63.3333C73.3334 65.1014 72.631 66.7971 71.3808 68.0473C70.1305 69.2976 68.4349 70 66.6667 70H56.6667C54.8986 70 53.2029 69.2976 51.9527 68.0473C50.7025 66.7971 50.0001 65.1014 50.0001 63.3333V46.6666C50.0001 44.8985 50.7025 43.2028 51.9527 41.9526C53.2029 40.7023 54.8986 40 56.6667 40H66.6667C66.6667 32.9275 63.8572 26.1447 58.8563 21.1438C53.8553 16.1428 47.0725 13.3333 40.0001 13.3333C32.9276 13.3333 26.1449 16.1428 21.1439 21.1438C16.1429 26.1447 13.3334 32.9275 13.3334 40V40Z" fill="white"/>
</svg>
