<svg width="191" height="75" viewBox="0 0 191 75" fill="none" xmlns="http://www.w3.org/2000/svg">
<g clip-path="url(#clip0_51_408)">
<path d="M29.0283 41.9704L41.9878 38.4979L31.7745 67.0302L27.3099 50.368L14.3504 53.8405L24.5637 25.3082L29.0283 41.9704Z" fill="white"/>
</g>
<g clip-path="url(#clip1_51_408)">
<path d="M86.3333 5.75V32.5833C86.3329 34.271 85.7757 35.9113 84.7481 37.25C83.7205 38.5887 82.2799 39.5509 80.6497 39.9874C79.0195 40.4239 77.2908 40.3103 75.7317 39.6643C74.1727 39.0182 72.8703 37.8758 72.0267 36.4142C71.183 34.9526 70.8452 33.2534 71.0656 31.5803C71.2861 29.9071 72.0524 28.3534 73.2458 27.1602C74.4392 25.9669 75.993 25.2007 77.6661 24.9805C79.3393 24.7603 81.0384 25.0983 82.5 25.9421V11.5H65.25V32.5833C65.2496 34.271 64.6924 35.9113 63.6648 37.25C62.6371 38.5887 61.1965 39.5509 59.5663 39.9874C57.9361 40.4239 56.2075 40.3103 54.6484 39.6643C53.0893 39.0182 51.787 37.8758 50.9433 36.4142C50.0997 34.9526 49.7619 33.2534 49.9823 31.5803C50.2027 29.9071 50.9691 28.3534 52.1625 27.1602C53.3559 25.9669 54.9096 25.2007 56.5828 24.9805C58.256 24.7603 59.9551 25.0983 61.4166 25.9421V5.75H86.3333Z" fill="white"/>
</g>
<g clip-path="url(#clip2_51_408)">
<path d="M102.189 40.0314L107.743 41.5196C108.725 41.7827 109.562 42.4252 110.071 43.3056C110.579 44.1861 110.717 45.2324 110.454 46.2144L107.973 55.4712C107.71 56.4532 107.068 57.2905 106.187 57.7988C105.307 58.3072 104.26 58.4449 103.278 58.1818L97.7243 56.6936C96.7423 56.4304 95.905 55.788 95.3967 54.9075C94.8883 54.0271 94.7506 52.9807 95.0137 51.9987L98.4862 39.0392C101.226 28.8142 111.735 22.7465 121.96 25.4863C132.186 28.2261 138.253 38.7356 135.513 48.9606L132.041 61.9201C131.778 62.9021 131.135 63.7394 130.255 64.2477C129.374 64.7561 128.328 64.8938 127.346 64.6307L121.792 63.1425C120.81 62.8793 119.973 62.2369 119.464 61.3564C118.956 60.476 118.818 59.4296 119.081 58.4476L121.562 49.1908C121.825 48.2088 122.467 47.3715 123.348 46.8632C124.228 46.3549 125.275 46.2171 126.257 46.4803L131.811 47.9685C132.863 44.0404 132.312 39.8551 130.279 36.3332C128.246 32.8114 124.896 30.2416 120.968 29.189C117.04 28.1365 112.855 28.6875 109.333 30.7209C105.811 32.7542 103.241 36.1033 102.189 40.0314Z" fill="white"/>
</g>
<path d="M163.678 35.8629L159.026 16.214L173.947 12.6815L175.271 18.2768L164.081 20.9262L168.938 41.4424C169.326 43.0847 169.162 44.8093 168.471 46.3487C167.779 47.8881 166.599 49.1564 165.113 49.9567C163.627 50.757 161.919 51.0448 160.253 50.7753C158.587 50.5058 157.056 49.6942 155.899 48.4662C154.741 47.2383 154.021 45.6627 153.85 43.9837C153.679 42.3048 154.067 40.6163 154.953 39.1802C155.84 37.7441 157.175 36.6406 158.752 36.0409C160.33 35.4411 162.061 35.3785 163.678 35.8629Z" fill="white"/>
<defs>
<clipPath id="clip0_51_408">
<rect width="46" height="46" fill="white" transform="translate(0 29.9058) rotate(-15)"/>
</clipPath>
<clipPath id="clip1_51_408">
<rect width="46" height="46" fill="white" transform="translate(48)"/>
</clipPath>
<clipPath id="clip2_51_408">
<rect width="46" height="46" fill="white" transform="translate(100.736 15.8308) rotate(15)"/>
</clipPath>
</defs>
</svg>
