<svg width="80" height="80" viewBox="0 0 80 80" fill="none" xmlns="http://www.w3.org/2000/svg">
<path d="M66.6667 10V56.6667C66.6661 59.6017 65.697 62.4544 63.9098 64.7826C62.1227 67.1107 59.6173 68.7841 56.7821 69.5433C53.947 70.3024 50.9406 70.1049 48.2292 68.9814C45.5178 67.8578 43.2529 65.871 41.7856 63.329C40.3184 60.7871 39.7309 57.8321 40.1143 54.9222C40.4976 52.0124 41.8304 49.3103 43.9058 47.2351C45.9813 45.1598 48.6835 43.8274 51.5934 43.4444C54.5033 43.0613 57.4583 43.6492 60.0001 45.1167V20H30.0001V56.6667C29.9994 59.6017 29.0303 62.4544 27.2432 64.7826C25.456 67.1107 22.9506 68.7841 20.1155 69.5433C17.2804 70.3024 14.274 70.1049 11.5626 68.9814C8.85113 67.8578 6.58618 65.871 5.11897 63.329C3.65176 60.7871 3.06427 57.8321 3.44761 54.9222C3.83095 52.0124 5.16369 49.3103 7.23916 47.2351C9.31464 45.1598 12.0169 43.8274 14.9267 43.4444C17.8366 43.0613 20.7916 43.6492 23.3334 45.1167V10H66.6667Z" fill="white"/>
</svg>
